<svg width="127" height="31" viewBox="0 0 127 31" fill="none" xmlns="http://www.w3.org/2000/svg">
<rect x="102.6" y="6.18164" width="20.2145" height="20.2145" rx="2.6598" fill="black"/>
<rect x="112.707" y="1.99609" width="20.2145" height="20.2145" rx="2.6598" transform="rotate(45 112.707 1.99609)" fill="black"/>
<path d="M14.3363 20.9464C14.691 20.4676 14.9747 19.8736 15.1875 19.1643C15.4002 18.455 15.5066 17.595 15.5066 16.5843C15.5066 15.7509 15.4091 14.9441 15.2141 14.1639C15.0367 13.3837 14.7442 12.6921 14.3363 12.0892C13.9285 11.4686 13.3965 10.981 12.7404 10.6264C12.0844 10.254 11.2864 10.0678 10.3466 10.0678C9.40683 10.0678 8.60889 10.254 7.9528 10.6264C7.29672 10.981 6.76476 11.4686 6.35692 12.0892C5.94909 12.6921 5.64764 13.3837 5.45259 14.1639C5.27527 14.9441 5.18661 15.7509 5.18661 16.5843C5.18661 17.3822 5.27527 18.1625 5.45259 18.9249C5.64764 19.6697 5.94909 20.3435 6.35692 20.9464C6.76476 21.5493 7.29672 22.0369 7.9528 22.4093C8.60889 22.7639 9.40683 22.9412 10.3466 22.9412C10.7899 22.9412 11.1268 22.9235 11.3573 22.888C11.5879 22.8526 11.8095 22.7816 12.0223 22.6752L10.2402 21.0528L12.1819 18.9781L14.3363 20.9464ZM14.9481 25.335C13.6891 26.0621 12.1553 26.4256 10.3466 26.4256C8.8926 26.4256 7.58043 26.1773 6.41012 25.6808C5.25754 25.1666 4.28228 24.4662 3.48434 23.5796C2.6864 22.693 2.07464 21.6557 1.64908 20.4676C1.22351 19.2618 1.01072 17.9674 1.01072 16.5843C1.01072 15.1657 1.22351 13.8536 1.64908 12.6478C2.07464 11.4243 2.6864 10.3604 3.48434 9.45604C4.28228 8.55171 5.25754 7.84243 6.41012 7.3282C7.58043 6.81397 8.8926 6.55686 10.3466 6.55686C11.8184 6.55686 13.1305 6.81397 14.2831 7.3282C15.4357 7.84243 16.411 8.55171 17.2089 9.45604C18.0069 10.3604 18.6186 11.4243 19.0442 12.6478C19.4697 13.8536 19.6825 15.1657 19.6825 16.5843C19.6825 17.9674 19.4697 19.253 19.0442 20.441C18.6186 21.6291 18.0069 22.6752 17.2089 23.5796L19.5761 25.734L17.6345 27.7555L14.9481 25.335ZM38.6554 18.8185C38.6554 21.3897 37.9373 23.3047 36.501 24.5637C35.0647 25.8049 33.0787 26.4256 30.543 26.4256C27.9719 26.4256 25.977 25.8049 24.5585 24.5637C23.1576 23.3225 22.4572 21.4074 22.4572 18.8185V7.00902H26.6331V18.8185C26.6331 19.3328 26.6775 19.8381 26.7661 20.3346C26.8548 20.8311 27.041 21.2744 27.3247 21.6645C27.6084 22.0369 27.9985 22.3472 28.495 22.5955C29.0092 22.826 29.6919 22.9412 30.543 22.9412C32.0325 22.9412 33.061 22.6132 33.6284 21.9571C34.1958 21.2833 34.4795 20.2371 34.4795 18.8185V7.00902H38.6554V18.8185ZM45.6031 16.5843C45.6031 17.3822 45.6918 18.1625 45.8691 18.9249C46.0641 19.6697 46.3656 20.3435 46.7734 20.9464C47.1813 21.5493 47.7132 22.0369 48.3693 22.4093C49.0254 22.7639 49.8233 22.9412 50.7631 22.9412C51.7029 22.9412 52.5009 22.7639 53.1569 22.4093C53.813 22.0369 54.345 21.5493 54.7528 20.9464C55.1607 20.3435 55.4532 19.6697 55.6306 18.9249C55.8256 18.1625 55.9231 17.3822 55.9231 16.5843C55.9231 15.7509 55.8256 14.9441 55.6306 14.1639C55.4532 13.3837 55.1607 12.6921 54.7528 12.0892C54.345 11.4686 53.813 10.981 53.1569 10.6264C52.5009 10.254 51.7029 10.0678 50.7631 10.0678C49.8233 10.0678 49.0254 10.254 48.3693 10.6264C47.7132 10.981 47.1813 11.4686 46.7734 12.0892C46.3656 12.6921 46.0641 13.3837 45.8691 14.1639C45.6918 14.9441 45.6031 15.7509 45.6031 16.5843ZM41.4272 16.5843C41.4272 15.1657 41.64 13.8536 42.0656 12.6478C42.4911 11.4243 43.1029 10.3604 43.9008 9.45604C44.6988 8.55171 45.674 7.84243 46.8266 7.3282C47.9969 6.81397 49.3091 6.55686 50.7631 6.55686C52.2349 6.55686 53.547 6.81397 54.6996 7.3282C55.8522 7.84243 56.8275 8.55171 57.6254 9.45604C58.4234 10.3604 59.0351 11.4243 59.4607 12.6478C59.8862 13.8536 60.099 15.1657 60.099 16.5843C60.099 17.9674 59.8862 19.2618 59.4607 20.4676C59.0351 21.6557 58.4234 22.693 57.6254 23.5796C56.8275 24.4662 55.8522 25.1666 54.6996 25.6808C53.547 26.1773 52.2349 26.4256 50.7631 26.4256C49.3091 26.4256 47.9969 26.1773 46.8266 25.6808C45.674 25.1666 44.6988 24.4662 43.9008 23.5796C43.1029 22.693 42.4911 21.6557 42.0656 20.4676C41.64 19.2618 41.4272 17.9674 41.4272 16.5843ZM67.156 10.52H61.464V7.00902H77.0239V10.52H71.3319V26H67.156V10.52ZM79.2136 7.00902H93.417V10.52H83.3895V14.5895H92.5924V17.8344H83.3895V22.4891H93.6298V26H79.2136V7.00902Z" fill="black"/>
<path d="M118.425 12.4316L110.621 20.2781L106.988 16.5936" stroke="#F4F2EE" stroke-width="2.6598"/>
</svg>
